<svg width="127" height="20" viewBox="0 0 127 20" fill="none" xmlns="http://www.w3.org/2000/svg">
<path d="M18.5969 7.41964C18.5392 7.24983 18.4331 7.10061 18.2916 6.99043C18.1501 6.88024 17.9795 6.81389 17.8007 6.79959L12.5716 6.38408L10.3087 1.37506C10.2367 1.21373 10.1195 1.07671 9.97125 0.980522C9.82303 0.884337 9.65014 0.833105 9.47344 0.833008C9.29675 0.832911 9.12381 0.883954 8.97548 0.979976C8.82715 1.076 8.70979 1.2129 8.63755 1.37415L6.37473 6.38408L1.14558 6.79959C0.969887 6.8135 0.801925 6.87774 0.661787 6.98462C0.52165 7.0915 0.41527 7.23648 0.355374 7.40224C0.295479 7.56799 0.284605 7.74749 0.324053 7.91926C0.3635 8.09103 0.451599 8.2478 0.57781 8.37081L4.44212 12.1379L3.07544 18.0559C3.03394 18.235 3.04724 18.4225 3.11361 18.594C3.17999 18.7655 3.29637 18.913 3.44765 19.0175C3.59894 19.1221 3.77815 19.1787 3.96202 19.1801C4.1459 19.1815 4.32594 19.1276 4.47881 19.0254L9.47315 15.6958L14.4675 19.0254C14.6237 19.1291 14.808 19.1825 14.9955 19.1784C15.183 19.1743 15.3647 19.1129 15.5162 19.0024C15.6678 18.8919 15.7819 18.7377 15.8431 18.5604C15.9044 18.3832 15.9099 18.1914 15.8589 18.0109L14.1813 12.1406L18.3419 8.39649C18.6143 8.15067 18.7143 7.76727 18.5969 7.41964Z" fill="#F3CD03"/>
<path d="M45.6115 7.41964C45.5539 7.24983 45.4478 7.10061 45.3063 6.99043C45.1648 6.88024 44.9941 6.81389 44.8154 6.79959L39.5862 6.38408L37.3234 1.37506C37.2513 1.21373 37.1341 1.07671 36.9859 0.980522C36.8377 0.884337 36.6648 0.833105 36.4881 0.833008C36.3114 0.832911 36.1385 0.883954 35.9901 0.979976C35.8418 1.076 35.7244 1.2129 35.6522 1.37415L33.3894 6.38408L28.1602 6.79959C27.9845 6.8135 27.8166 6.87774 27.6764 6.98462C27.5363 7.0915 27.4299 7.23648 27.37 7.40224C27.3101 7.56799 27.2993 7.74749 27.3387 7.91926C27.3781 8.09103 27.4662 8.2478 27.5925 8.37081L31.4568 12.1379L30.0901 18.0559C30.0486 18.235 30.0619 18.4225 30.1283 18.594C30.1946 18.7655 30.311 18.913 30.4623 19.0175C30.6136 19.1221 30.7928 19.1787 30.9767 19.1801C31.1605 19.1815 31.3406 19.1276 31.4935 19.0254L36.4878 15.6958L41.4821 19.0254C41.6384 19.1291 41.8226 19.1825 42.0101 19.1784C42.1976 19.1743 42.3794 19.1129 42.5309 19.0024C42.6824 18.8919 42.7965 18.7377 42.8578 18.5604C42.919 18.3832 42.9246 18.1914 42.8736 18.0109L41.196 12.1406L45.3565 8.39649C45.629 8.15067 45.7289 7.76727 45.6115 7.41964Z" fill="#F3CD03"/>
<path d="M72.6223 7.41964C72.5646 7.24983 72.4585 7.10061 72.317 6.99043C72.1755 6.88024 72.0049 6.81389 71.8261 6.79959L66.597 6.38408L64.3341 1.37506C64.2621 1.21373 64.1449 1.07671 63.9966 0.980522C63.8484 0.884337 63.6755 0.833105 63.4988 0.833008C63.3221 0.832911 63.1492 0.883954 63.0009 0.979976C62.8525 1.076 62.7352 1.2129 62.6629 1.37415L60.4001 6.38408L55.171 6.79959C54.9953 6.8135 54.8273 6.87774 54.6872 6.98462C54.547 7.0915 54.4407 7.23648 54.3808 7.40224C54.3209 7.56799 54.31 7.74749 54.3494 7.91926C54.3889 8.09103 54.477 8.2478 54.6032 8.37081L58.4675 12.1379L57.1008 18.0559C57.0593 18.235 57.0726 18.4225 57.139 18.594C57.2054 18.7655 57.3218 18.913 57.473 19.0175C57.6243 19.1221 57.8035 19.1787 57.9874 19.1801C58.1713 19.1815 58.3513 19.1276 58.5042 19.0254L63.4985 15.6958L68.4929 19.0254C68.6491 19.1291 68.8334 19.1825 69.0209 19.1784C69.2084 19.1743 69.3901 19.1129 69.5416 19.0024C69.6932 18.8919 69.8073 18.7377 69.8685 18.5604C69.9298 18.3832 69.9353 18.1914 69.8843 18.0109L68.2067 12.1406L72.3673 8.39649C72.6397 8.15067 72.7397 7.76727 72.6223 7.41964Z" fill="#F3CD03"/>
<path d="M99.6369 7.41964C99.5793 7.24983 99.4731 7.10061 99.3317 6.99043C99.1902 6.88024 99.0195 6.81389 98.8408 6.79959L93.6116 6.38408L91.3488 1.37506C91.2767 1.21373 91.1595 1.07671 91.0113 0.980522C90.8631 0.884337 90.6902 0.833105 90.5135 0.833008C90.3368 0.832911 90.1638 0.883954 90.0155 0.979976C89.8672 1.076 89.7498 1.2129 89.6776 1.37415L87.4148 6.38408L82.1856 6.79959C82.0099 6.8135 81.842 6.87774 81.7018 6.98462C81.5617 7.0915 81.4553 7.23648 81.3954 7.40224C81.3355 7.56799 81.3246 7.74749 81.3641 7.91926C81.4035 8.09103 81.4916 8.2478 81.6178 8.37081L85.4822 12.1379L84.1155 18.0559C84.074 18.235 84.0873 18.4225 84.1537 18.594C84.22 18.7655 84.3364 18.913 84.4877 19.0175C84.639 19.1221 84.8182 19.1787 85.0021 19.1801C85.1859 19.1815 85.366 19.1276 85.5188 19.0254L90.5132 15.6958L95.5075 19.0254C95.6638 19.1291 95.848 19.1825 96.0355 19.1784C96.223 19.1743 96.4047 19.1129 96.5563 19.0024C96.7078 18.8919 96.8219 18.7377 96.8832 18.5604C96.9444 18.3832 96.9499 18.1914 96.899 18.0109L95.2213 12.1406L99.3819 8.39649C99.6543 8.15067 99.7543 7.76727 99.6369 7.41964Z" fill="#F3CD03"/>
<path d="M112.498 12.1374L111.131 18.0554C111.089 18.2346 111.101 18.4224 111.167 18.5943C111.234 18.7662 111.35 18.9141 111.501 19.0188C111.653 19.1235 111.832 19.1801 112.016 19.1812C112.201 19.1823 112.381 19.1278 112.533 19.0249L117.528 15.6954L122.522 19.0249C122.678 19.1287 122.863 19.1821 123.05 19.178C123.238 19.1739 123.419 19.1124 123.571 19.0019C123.722 18.8915 123.837 18.7372 123.898 18.56C123.959 18.3827 123.965 18.191 123.914 18.0105L122.236 12.1402L126.397 8.39603C126.53 8.27605 126.625 8.11963 126.67 7.94614C126.716 7.77264 126.709 7.58967 126.651 7.41986C126.594 7.25004 126.488 7.10083 126.346 6.99067C126.205 6.88051 126.034 6.81423 125.855 6.80004L120.626 6.38362L118.363 1.3746C118.291 1.21331 118.174 1.07635 118.026 0.980249C117.877 0.884145 117.705 0.833008 117.528 0.833008C117.351 0.833008 117.178 0.884145 117.03 0.980249C116.882 1.07635 116.764 1.21331 116.692 1.3746L114.429 6.38362L109.2 6.79913C109.025 6.81305 108.857 6.87729 108.716 6.98416C108.576 7.09104 108.47 7.23602 108.41 7.40178C108.35 7.56753 108.339 7.74703 108.379 7.9188C108.418 8.09057 108.506 8.24734 108.632 8.37035L112.498 12.1374ZM115.115 8.16947C115.278 8.15658 115.436 8.09987 115.57 8.0053C115.704 7.91073 115.81 7.78179 115.878 7.63198L117.528 3.98047L119.178 7.63198C119.245 7.78179 119.352 7.91073 119.486 8.0053C119.62 8.09987 119.777 8.15658 119.941 8.16947L123.584 8.4584L120.584 11.1587C120.324 11.3936 120.22 11.7549 120.315 12.0925L121.465 16.1146L118.038 13.8297C117.887 13.7288 117.71 13.6749 117.529 13.6749C117.348 13.6749 117.171 13.7288 117.021 13.8297L113.44 16.2173L114.403 12.0475C114.438 11.8942 114.433 11.7343 114.389 11.5833C114.345 11.4323 114.262 11.2953 114.15 11.1853L111.363 8.46849L115.115 8.16947Z" fill="#F3CD03"/>
</svg>
